<?xml version="1.0" standalone="no"?>
<!DOCTYPE svg PUBLIC "-//W3C//DTD SVG 20010904//EN"
 "http://www.w3.org/TR/2001/REC-SVG-20010904/DTD/svg10.dtd">
<svg version="1.0" xmlns="http://www.w3.org/2000/svg"
 width="700.000000pt" height="700.000000pt" viewBox="0 0 700.000000 700.000000"
 preserveAspectRatio="xMidYMid meet">
<metadata>
Created by potrace 1.14, written by Peter Selinger 2001-2017
</metadata>
<g transform="translate(0.000000,700.000000) scale(0.100000,-0.100000)"
fill="#000000" stroke="none">
<path d="M3259 6986 c-2 -2 -38 -7 -79 -10 -41 -3 -86 -8 -100 -10 -14 -3 -47
-7 -75 -11 -212 -25 -526 -107 -770 -202 -123 -48 -373 -169 -492 -239 -623
-364 -1162 -967 -1432 -1604 -18 -41 -36 -84 -41 -95 -95 -207 -202 -621 -235
-905 -26 -228 -27 -667 -1 -805 2 -11 6 -47 10 -80 13 -117 58 -328 103 -485
182 -639 561 -1235 1063 -1670 41 -36 77 -67 80 -70 15 -15 176 -134 245 -181
44 -30 81 -57 83 -61 2 -5 7 -8 11 -8 5 0 49 -25 99 -55 86 -52 274 -149 372
-193 263 -116 643 -225 900 -258 30 -4 66 -8 80 -10 136 -20 571 -26 745 -11
100 9 240 29 355 52 41 8 86 17 99 20 266 51 688 217 971 383 134 78 399 258
430 292 3 3 39 34 80 69 106 90 252 232 340 331 41 47 77 87 80 90 38 38 190
244 255 345 211 331 355 660 450 1031 20 75 38 153 41 173 3 20 7 43 9 51 3 8
7 33 10 55 4 22 8 47 10 55 2 8 7 42 10 75 3 33 8 71 11 85 16 92 22 399 11
590 -26 454 -148 909 -354 1326 -85 171 -240 427 -315 519 -5 6 -36 46 -70 90
-34 44 -67 85 -73 91 -5 6 -35 39 -65 74 -253 292 -628 584 -992 774 -301 158
-698 295 -988 341 -25 4 -52 9 -60 10 -35 7 -169 26 -215 31 -58 6 -590 15
-596 10z m521 -410 c14 -2 52 -7 85 -11 425 -41 899 -209 1287 -455 90 -58
249 -170 268 -190 3 -3 30 -25 60 -50 96 -78 299 -277 366 -360 16 -19 35 -41
42 -49 20 -21 124 -160 169 -226 253 -371 436 -833 497 -1258 4 -27 9 -57 11
-66 20 -107 28 -567 12 -726 -108 -1056 -779 -2012 -1732 -2466 -267 -127
-572 -226 -815 -263 -19 -3 -51 -8 -70 -11 -235 -36 -600 -41 -840 -10 -191
25 -354 61 -549 122 -911 285 -1663 1013 -1981 1918 -52 149 -108 361 -125
475 -4 24 -8 47 -10 50 -2 3 -6 37 -10 75 -4 39 -9 72 -10 75 -6 10 -19 253
-19 360 0 101 11 305 19 352 2 13 6 41 10 63 33 226 109 527 170 670 7 17 27
66 46 110 71 173 219 437 326 583 72 98 102 138 124 163 180 209 305 333 479
470 280 222 589 390 936 508 108 37 339 96 408 106 27 3 53 8 56 10 4 2 36 7
71 11 35 3 66 8 69 9 4 2 51 7 105 11 55 3 102 8 104 10 5 5 412 -4 441 -10z"/>
<path d="M2399 4932 c-251 -158 -463 -291 -472 -297 -58 -37 -210 -133 -252
-160 -27 -18 -88 -56 -135 -85 -47 -29 -96 -60 -110 -70 -14 -9 -142 -90 -285
-180 -143 -90 -261 -164 -263 -166 -2 -1 26 -49 63 -106 36 -56 85 -133 108
-169 l42 -67 245 158 c135 88 295 191 355 230 61 39 212 137 337 218 494 319
546 352 552 352 4 0 2 -9 -4 -21 -19 -35 -206 -566 -255 -723 -39 -128 -109
-381 -120 -434 -2 -9 -10 -44 -18 -77 -8 -33 -18 -78 -23 -100 -4 -22 -8 -44
-10 -50 -7 -28 -43 -237 -49 -285 -4 -30 -10 -82 -15 -115 -13 -98 -5 -420 13
-501 46 -205 135 -342 272 -419 302 -170 660 -12 1066 470 273 325 583 801
786 1210 33 66 68 139 79 163 17 41 40 60 30 25 -3 -10 -8 -40 -11 -68 -4 -27
-8 -59 -10 -70 -2 -11 -6 -56 -9 -100 -4 -44 -9 -100 -12 -124 -7 -60 -6 -372
1 -446 9 -96 25 -216 37 -265 5 -25 11 -52 13 -61 2 -9 13 -49 25 -90 101
-340 336 -534 627 -516 97 5 154 22 254 72 156 78 323 235 478 450 27 39 55
75 61 82 5 7 10 14 10 17 0 3 13 24 29 48 30 44 44 68 118 202 68 121 183 381
172 389 -2 2 -87 33 -189 69 l-185 65 -41 -101 c-135 -333 -303 -602 -482
-774 -327 -312 -545 -17 -546 738 0 121 11 388 19 460 2 19 7 68 10 109 4 41
8 82 10 90 1 9 6 45 10 81 8 78 8 78 30 230 19 126 51 311 71 410 9 41 18 85
20 96 4 20 -12 27 -180 83 -101 33 -187 61 -191 61 -3 0 -27 -44 -51 -97 -396
-855 -906 -1717 -1293 -2183 -81 -98 -248 -261 -320 -313 -173 -125 -285 -92
-319 94 -10 52 -9 341 2 386 2 12 7 46 10 75 4 29 8 62 10 73 2 11 7 40 12 65
4 25 8 47 9 50 1 3 5 25 9 50 8 44 12 63 20 98 2 9 16 67 30 127 54 232 101
399 198 700 91 285 282 799 352 949 13 27 12 30 -23 60 -20 17 -41 36 -47 41
-6 6 -35 30 -64 55 -29 25 -72 62 -94 82 -23 21 -45 38 -51 38 -5 0 -215 -129
-466 -288z"/>
</g>
</svg>
