<?xml version="1.0" standalone="no"?>
<!DOCTYPE svg PUBLIC "-//W3C//DTD SVG 20010904//EN"
 "http://www.w3.org/TR/2001/REC-SVG-20010904/DTD/svg10.dtd">
<svg version="1.0" xmlns="http://www.w3.org/2000/svg"
 width="700.000000pt" height="700.000000pt" viewBox="0 0 700.000000 700.000000"
 preserveAspectRatio="xMidYMid meet">
<metadata>
Created by potrace 1.14, written by Peter Selinger 2001-2017
</metadata>
<g transform="translate(0.000000,700.000000) scale(0.100000,-0.100000)"
fill="#000000" stroke="none">
<path d="M0 3500 l0 -3500 3500 0 3500 0 0 3500 0 3500 -3500 0 -3500 0 0
-3500z m3898 2721 c465 -70 880 -244 1261 -528 153 -114 420 -382 534 -535
257 -344 420 -707 509 -1133 22 -104 23 -131 23 -525 0 -463 -2 -481 -81 -760
-292 -1029 -1179 -1803 -2244 -1960 -193 -28 -597 -28 -790 0 -1093 161 -1986
958 -2265 2022 -247 945 24 1946 715 2639 435 436 1026 724 1620 789 52 5 111
12 130 14 89 11 461 -4 588 -23z"/>
<path d="M3245 5920 c-635 -72 -1230 -397 -1634 -893 -152 -187 -312 -469
-396 -702 -47 -128 -98 -328 -121 -480 -26 -167 -26 -521 0 -690 81 -526 312
-989 681 -1361 209 -210 393 -343 654 -473 540 -268 1169 -324 1749 -157 857
248 1530 975 1706 1846 62 306 62 674 0 980 -147 725 -646 1367 -1319 1695
-223 108 -456 182 -700 221 -118 18 -501 27 -620 14z m-130 -1156 l114 -97
-15 -36 c-59 -136 -173 -439 -234 -616 -175 -516 -267 -919 -277 -1210 -6
-184 7 -257 55 -302 59 -54 166 -6 317 142 108 107 182 197 321 391 241 336
541 861 769 1344 48 102 91 189 97 195 6 6 58 -7 151 -39 78 -27 143 -50 145
-52 2 -1 -8 -60 -22 -130 -106 -551 -140 -1142 -81 -1422 54 -259 157 -352
305 -277 142 72 351 371 471 673 17 42 32 79 34 81 5 4 277 -90 288 -99 18
-16 -101 -272 -201 -433 -299 -484 -613 -662 -903 -511 -159 84 -254 247 -305
529 -24 132 -25 535 -1 700 8 61 14 111 13 113 -2 1 -20 -35 -41 -80 -88 -196
-272 -508 -438 -748 -245 -352 -497 -600 -689 -677 -89 -36 -166 -47 -240 -34
-175 31 -296 155 -345 356 -21 88 -24 369 -5 500 52 345 158 733 326 1185 29
80 52 147 50 148 -1 2 -263 -164 -581 -370 -318 -205 -581 -373 -585 -373 -15
0 -169 258 -160 267 13 13 1536 976 1545 977 4 1 59 -42 122 -95z"/>
</g>
</svg>
