<svg xmlns="http://www.w3.org/2000/svg" xmlns:xlink="http://www.w3.org/1999/xlink" width="348" height="348" viewBox="0 0 348 348">
  <defs>
    <clipPath id="clip-path">
      <rect id="Rectangle_4" data-name="Rectangle 4" width="348" height="348" fill="#f5d7ba"/>
    </clipPath>
  </defs>
  <g id="Group_157" data-name="Group 157" transform="translate(0.683 0.347)">
    <g id="Group_4" data-name="Group 4" transform="translate(-0.683 -0.347)" clip-path="url(#clip-path)">
      <path id="Path_10" data-name="Path 10" d="M173.589,0C77.871,0,0,77.871,0,173.589S77.871,347.178,173.589,347.178s173.587-77.871,173.587-173.589S269.306,0,173.589,0m0,327.131c-84.662,0-153.541-68.878-153.541-153.542S88.927,20.047,173.589,20.047,327.126,88.925,327.126,173.589,258.25,327.131,173.589,327.131" transform="translate(0.587 0.423)" fill="#f5d7ba"/>
      <path id="Path_11" data-name="Path 11" d="M194.845,163.5c.89,14.606,4.068,26.845,8.948,34.461,4.66,7.269,11.167,11.987,18.818,13.642,7.351,1.58,14.882.089,22.382-4.441,6.377-3.85,12.751-9.9,18.949-17.972a149.938,149.938,0,0,0,21.976-39.9l-18.926-6.623c-8.666,24.712-26.645,51.2-38.661,49.663-9.491-1.21-12.627-17.332-13.6-26.133-2.926-26.477,2.38-66.279,7.873-91.14l-18.927-6.312C170.414,142.064,129.1,201.7,112.266,201.711a5.91,5.91,0,0,1-2.34-.455c-3.265-1.387-5-6.3-5.149-14.61-.146-7.829,1.176-18.71,3.826-31.467,5.509-26.525,16.371-59.851,29.8-91.442L123.8,51.312,25.2,113.543,35.9,130.5l74.249-48.029-.086.24c-.6,1.654-1.243,3.395-1.911,5.208-4.222,11.492-9.477,25.8-13.2,38.948-9.729,34.417-19.579,81.487,7.118,92.84a24.9,24.9,0,0,0,9.775,2.025c9.715,0,20.084-5.55,31.7-16.962,11.633-11.434,24.195-28.436,38.4-51.982a290.6,290.6,0,0,0,15.106-29.394l.258-.6-.094.645c-3.071,20.519-2.83,32.691-2.38,40.063" transform="translate(18.529 36.954)" fill="#f5d7ba"/>
    </g>
  </g>
</svg>
